<svg width="17" height="17" viewBox="0 0 17 17" fill="none" xmlns="http://www.w3.org/2000/svg">
  <path
    d="M8.5 1.5L9.15079 0.740743C8.7763 0.419752 8.2237 0.419752 7.84921 0.740743L8.5 1.5ZM1.5 7.5L0.849209 6.74074L0.5 7.04007V7.5H1.5ZM6.5 15.5V16.5C7.05228 16.5 7.5 16.0523 7.5 15.5H6.5ZM10.5 15.5H9.5C9.5 16.0523 9.94772 16.5 10.5 16.5V15.5ZM15.5 7.5H16.5V7.04007L16.1508 6.74074L15.5 7.5ZM2.5 16.5H6.5V14.5H2.5V16.5ZM16.1508 6.74074L9.15079 0.740743L7.84921 2.25926L14.8492 8.25926L16.1508 6.74074ZM7.84921 0.740743L0.849209 6.74074L2.15079 8.25926L9.15079 2.25926L7.84921 0.740743ZM7.5 15.5V12.5H5.5V15.5H7.5ZM9.5 12.5V15.5H11.5V12.5H9.5ZM10.5 16.5H14.5V14.5H10.5V16.5ZM16.5 14.5V7.5H14.5V14.5H16.5ZM0.5 7.5V14.5H2.5V7.5H0.5ZM8.5 11.5C9.05228 11.5 9.5 11.9477 9.5 12.5H11.5C11.5 10.8431 10.1569 9.5 8.5 9.5V11.5ZM8.5 9.5C6.84315 9.5 5.5 10.8431 5.5 12.5H7.5C7.5 11.9477 7.94772 11.5 8.5 11.5V9.5ZM14.5 16.5C15.6046 16.5 16.5 15.6046 16.5 14.5H14.5V16.5ZM2.5 14.5H0.5C0.5 15.6046 1.39543 16.5 2.5 16.5V14.5Z" />
</svg>