<svg width="17" height="17" viewBox="0 0 17 17" fill="none" xmlns="http://www.w3.org/2000/svg">
  <path
    d="M7.5 5.5L7.5 6.5L9.5 6.5L9.5 5.5L7.5 5.5ZM9.5 5.49L9.5 4.49L7.5 4.49L7.5 5.49L9.5 5.49ZM9.5 12L9.5 8L7.5 8L7.5 12L9.5 12ZM9.5 5.5L9.5 5.49L7.5 5.49L7.5 5.5L9.5 5.5ZM8.5 2.5C11.8137 2.5 14.5 5.18629 14.5 8.5L16.5 8.5C16.5 4.08172 12.9183 0.5 8.5 0.499999L8.5 2.5ZM2.5 8.5C2.5 5.18629 5.18629 2.5 8.5 2.5L8.5 0.499999C4.08172 0.499999 0.500001 4.08172 0.500001 8.5L2.5 8.5ZM8.5 14.5C5.18629 14.5 2.5 11.8137 2.5 8.5L0.500001 8.5C0.5 12.9183 4.08172 16.5 8.5 16.5L8.5 14.5ZM8.5 16.5C12.9183 16.5 16.5 12.9183 16.5 8.5L14.5 8.5C14.5 11.8137 11.8137 14.5 8.5 14.5L8.5 16.5Z" />
</svg>